<svg xmlns="http://www.w3.org/2000/svg" xmlns:xlink="http://www.w3.org/1999/xlink" width="1000" zoomAndPan="magnify" viewBox="0 0 750 225" height="300" preserveAspectRatio="xMidYMid meet" version="1.0"><defs><g/></defs><path fill="#49d381" d="M 9.542969 33.800781 L 14.035156 29.308594 C 20.921875 22.492188 32.15625 22.929688 38.460938 30.25 L 100.652344 102.730469 C 106.082031 109.039062 106.015625 118.386719 100.503906 124.621094 L 38.535156 194.851562 C 32.15625 202.027344 21.066406 202.386719 14.253906 195.574219 L 9.757812 191.082031 C 3.671875 184.992188 3.234375 175.285156 8.746094 168.613281 L 45.855469 124.109375 C 50.929688 118.019531 51 109.25 46.074219 103.015625 L 8.382812 55.90625 C 3.019531 49.382812 3.527344 39.816406 9.542969 33.800781 Z M 9.542969 33.800781 " fill-opacity="1" fill-rule="nonzero"/><path fill="#ffbb00" d="M 45.78125 124.257812 L 8.671875 168.757812 C 3.164062 175.351562 3.597656 185.136719 9.6875 191.226562 L 14.179688 195.722656 C 20.992188 202.535156 32.082031 202.175781 38.460938 194.996094 L 51.871094 179.773438 C 56.945312 169.773438 59.769531 158.46875 59.769531 146.511719 C 59.769531 131.726562 55.421875 118.023438 48.027344 106.496094 C 50.78125 112.152344 50.058594 119.183594 45.78125 124.257812 Z M 45.78125 124.257812 " fill-opacity="1" fill-rule="nonzero"/><g fill="#49d381" fill-opacity="1"><g transform="translate(134.611883, 186.375002)"><g><path d="M 47.140625 1.484375 C 32.347656 1.484375 21.6875 -2.273438 15.15625 -9.796875 C 8.625 -17.316406 5.359375 -28.84375 5.359375 -44.375 L 5.359375 -86.15625 C 5.359375 -97.863281 6.617188 -107.382812 9.140625 -114.71875 C 11.671875 -122.050781 15.925781 -127.566406 21.90625 -131.265625 C 27.882812 -134.960938 36.171875 -136.8125 46.765625 -136.8125 C 58.359375 -136.8125 67.789062 -133.789062 75.0625 -127.75 C 82.332031 -121.707031 85.96875 -113.265625 85.96875 -102.421875 L 85.96875 -81.71875 L 53.0625 -81.71875 L 53.0625 -100.75 C 53.0625 -104.332031 52.566406 -107.078125 51.578125 -108.984375 C 50.585938 -110.890625 48.675781 -111.84375 45.84375 -111.84375 C 40.550781 -111.84375 37.90625 -108.085938 37.90625 -100.578125 L 37.90625 -34.9375 C 37.90625 -31.851562 38.550781 -29.234375 39.84375 -27.078125 C 41.132812 -24.921875 43.078125 -23.84375 45.671875 -23.84375 C 48.253906 -23.84375 50.191406 -24.890625 51.484375 -26.984375 C 52.773438 -29.085938 53.363281 -31.800781 53.25 -35.125 L 53.0625 -57.859375 L 85.96875 -57.859375 L 85.96875 -34.203125 C 85.96875 -23.109375 82.363281 -14.382812 75.15625 -8.03125 C 67.945312 -1.6875 58.609375 1.484375 47.140625 1.484375 Z M 47.140625 1.484375 "/></g></g></g><g fill="#49d381" fill-opacity="1"><g transform="translate(228.337647, 186.375002)"><g><path d="M 6.28125 -144.390625 L 6.28125 -166.9375 L 38.640625 -166.9375 L 38.640625 -144.390625 Z M 6.28125 0 L 6.28125 -135.328125 L 38.640625 -135.328125 L 38.640625 0 Z M 6.28125 0 "/></g></g></g><g fill="#49d381" fill-opacity="1"><g transform="translate(276.217328, 186.375002)"><g><path d="M 6.46875 -135.328125 L 38.828125 -135.328125 L 38.828125 -118.140625 C 40.179688 -123.679688 42.519531 -128.175781 45.84375 -131.625 C 49.175781 -135.082031 53.613281 -136.8125 59.15625 -136.8125 C 68.28125 -136.8125 75.03125 -134.003906 79.40625 -128.390625 C 83.78125 -122.785156 85.96875 -114.804688 85.96875 -104.453125 L 85.96875 0 L 54.171875 0 L 54.171875 -101.125 C 54.171875 -104.082031 53.582031 -106.609375 52.40625 -108.703125 C 51.238281 -110.796875 49.421875 -111.84375 46.953125 -111.84375 C 43.628906 -111.84375 41.441406 -110.332031 40.390625 -107.3125 C 39.347656 -104.300781 38.828125 -100.265625 38.828125 -95.203125 L 38.828125 0 L 6.46875 0 Z M 6.46875 -135.328125 "/></g></g></g><g fill="#49d381" fill-opacity="1"><g transform="translate(371.421994, 186.375002)"><g><path d="M 44.375 1.484375 C 30.445312 1.484375 20.460938 -2.335938 14.421875 -9.984375 C 8.378906 -17.628906 5.359375 -29.03125 5.359375 -44.1875 L 5.359375 -98.53125 C 5.359375 -110.976562 8.929688 -120.46875 16.078125 -127 C 23.234375 -133.539062 33.21875 -136.8125 46.03125 -136.8125 C 72.039062 -136.8125 85.046875 -124.050781 85.046875 -98.53125 L 85.046875 -88.734375 C 85.046875 -78.878906 84.921875 -70.867188 84.671875 -64.703125 L 37.71875 -64.703125 L 37.71875 -38.453125 C 37.71875 -33.765625 38.207031 -30.097656 39.1875 -27.453125 C 40.175781 -24.804688 42.273438 -23.484375 45.484375 -23.484375 C 47.941406 -23.484375 49.691406 -24.222656 50.734375 -25.703125 C 51.785156 -27.179688 52.40625 -28.875 52.59375 -30.78125 C 52.78125 -32.6875 52.875 -35.488281 52.875 -39.1875 L 52.875 -52.3125 L 85.046875 -52.3125 L 85.046875 -44.5625 C 85.046875 -28.78125 81.992188 -17.160156 75.890625 -9.703125 C 69.785156 -2.242188 59.28125 1.484375 44.375 1.484375 Z M 52.875 -80.796875 L 52.875 -98.171875 C 52.875 -107.910156 50.472656 -112.78125 45.671875 -112.78125 C 40.242188 -112.78125 37.53125 -107.910156 37.53125 -98.171875 L 37.53125 -80.796875 Z M 52.875 -80.796875 "/></g></g></g><g fill="#49d381" fill-opacity="1"><g transform="translate(464.59317, 186.375002)"><g><path d="M 6.46875 -159.734375 L 39.75 -159.734375 L 39.75 -122.015625 C 43.195312 -131.878906 49.789062 -136.8125 59.53125 -136.8125 C 68.644531 -136.8125 75.546875 -133.910156 80.234375 -128.109375 C 84.921875 -122.316406 87.265625 -114.367188 87.265625 -104.265625 L 87.265625 0 L 54.90625 0 L 54.90625 -102.234375 C 54.90625 -105.191406 54.226562 -107.59375 52.875 -109.4375 C 51.519531 -111.289062 49.546875 -112.21875 46.953125 -112.21875 C 44.734375 -112.21875 42.976562 -111.257812 41.6875 -109.34375 C 40.394531 -107.4375 39.75 -105.128906 39.75 -102.421875 L 39.75 0 L 6.46875 0 Z M 6.46875 -159.734375 "/></g></g></g><g fill="#49d381" fill-opacity="1"><g transform="translate(560.907032, 186.375002)"><g><path d="M 32.53125 1.484375 C 22.425781 1.484375 15.492188 -1.535156 11.734375 -7.578125 C 7.972656 -13.617188 6.09375 -22.617188 6.09375 -34.578125 L 6.09375 -135.328125 L 38.640625 -135.328125 L 38.640625 -41.046875 C 38.640625 -40.179688 38.640625 -37.867188 38.640625 -34.109375 C 38.640625 -30.347656 39.222656 -27.695312 40.390625 -26.15625 C 41.566406 -24.613281 43.382812 -23.84375 45.84375 -23.84375 C 49.175781 -23.84375 51.269531 -25.226562 52.125 -28 C 52.988281 -30.78125 53.421875 -34.757812 53.421875 -39.9375 L 53.421875 -41.046875 L 53.609375 -135.328125 L 85.78125 -135.328125 L 85.78125 0 L 53.421875 0 L 53.421875 -14.421875 C 51.203125 -8.753906 48.613281 -4.6875 45.65625 -2.21875 C 42.707031 0.25 38.332031 1.484375 32.53125 1.484375 Z M 32.53125 1.484375 "/></g></g></g><g fill="#49d381" fill-opacity="1"><g transform="translate(656.11171, 186.375002)"><g><path d="M 58.796875 1.484375 C 49.921875 1.484375 43.570312 -3.816406 39.75 -14.421875 L 39.75 0 L 6.46875 0 L 6.46875 -159.734375 L 39.75 -159.734375 L 39.75 -128.859375 C 44.925781 -134.160156 50.960938 -136.8125 57.859375 -136.8125 C 68.335938 -136.8125 75.859375 -133.695312 80.421875 -127.46875 C 84.984375 -121.25 87.265625 -112.285156 87.265625 -100.578125 L 87.265625 -35.3125 C 87.265625 -24.21875 84.921875 -15.3125 80.234375 -8.59375 C 75.546875 -1.875 68.398438 1.484375 58.796875 1.484375 Z M 47.875 -23.65625 C 50.09375 -23.65625 51.664062 -24.363281 52.59375 -25.78125 C 53.519531 -27.207031 54.070312 -29 54.25 -31.15625 C 54.4375 -33.3125 54.53125 -36.671875 54.53125 -41.234375 L 54.53125 -97.609375 C 54.53125 -102.421875 54.097656 -105.992188 53.234375 -108.328125 C 52.378906 -110.671875 50.535156 -111.84375 47.703125 -111.84375 C 44.617188 -111.84375 42.519531 -110.671875 41.40625 -108.328125 C 40.300781 -105.992188 39.75 -102.546875 39.75 -97.984375 L 39.75 -41.234375 C 39.75 -35.316406 40.238281 -30.90625 41.21875 -28 C 42.207031 -25.101562 44.425781 -23.65625 47.875 -23.65625 Z M 47.875 -23.65625 "/></g></g></g></svg>